<?xml version="1.0" encoding="UTF-8"?>
<svg width="112px" height="112px" viewBox="0 0 112 112" version="1.1" xmlns="http://www.w3.org/2000/svg" xmlns:xlink="http://www.w3.org/1999/xlink">
    <!-- Generator: Sketch 46.2 (44496) - http://www.bohemiancoding.com/sketch -->
    <title>Page 1</title>
    <desc>Created with Sketch.</desc>
    <defs>
        <polygon id="path-1" points="112 0.0002 112 112 0.0001 112 0.0001 0.0002"></polygon>
        <polygon id="path-3" points="79.4471 95 0.5531 95 0.5531 0.688716286 79.4471 0.688716286"></polygon>
    </defs>
    <g id="Symbols" stroke="none" stroke-width="1" fill="none" fill-rule="evenodd">
        <g id="object/プロフィール写真">
            <g id="Page-1">
                <g id="Group-3">
                    <mask id="mask-2" fill="white">
                        <use xlink:href="#path-1"></use>
                    </mask>
                    <g id="Clip-2"></g>
                    <path d="M112.0001,56.0002 C112.0001,86.9282 86.9281,112.0002 56.0001,112.0002 C25.0721,112.0002 0.0001,86.9282 0.0001,56.0002 C0.0001,25.0722 25.0721,0.0002 56.0001,0.0002 C86.9281,0.0002 112.0001,25.0722 112.0001,56.0002" id="Fill-1" fill="#C8C9C9" mask="url(#mask-2)"></path>
                </g>
                <path d="M86.1719,77.237 C87.7989,78.082 89.8579,79.15 86.1719,77.237" id="Fill-4" fill="#9F9FA0"></path>
                <path d="M86.0865,77.1926 C86.1165,77.2086 86.1425,77.2216 86.1715,77.2366 C86.1435,77.2226 86.1145,77.2076 86.0865,77.1926" id="Fill-6" fill="#9F9FA0"></path>
                <g id="Group-10" transform="translate(16.000000, 17.000000)">
                    <mask id="mask-4" fill="white">
                        <use xlink:href="#path-3"></use>
                    </mask>
                    <g id="Clip-9"></g>
                    <path d="M40.0001,95.0002 C55.3891,95.0002 69.3251,88.7892 79.4471,78.7422 C78.3351,67.6552 75.6631,63.0872 69.2931,59.7812 C69.5141,59.8962 69.7901,60.0392 70.0861,60.1922 C69.8431,60.0662 69.5841,59.9322 69.2921,59.7802 C68.5541,59.3972 68.7491,59.4992 69.2921,59.7802 C66.4801,58.3222 61.8481,57.7552 56.5601,55.9342 C56.5671,55.8772 55.7391,54.0482 55.3621,53.3262 C54.4741,51.6232 53.8841,51.2992 51.4911,51.1312 C51.1131,49.6192 51.1251,48.2382 51.3561,47.0302 C51.6121,46.7322 52.1391,46.1232 52.8041,45.2372 C53.8261,43.8742 54.1671,41.8202 54.4071,39.5202 C54.4271,39.3222 54.5731,39.0362 54.7331,38.9752 C55.0381,38.8582 55.3941,38.8542 55.7301,38.8422 C56.1721,38.8242 56.6621,38.5142 56.8291,38.1102 C57.1651,37.2942 57.5941,36.5922 57.9471,35.7832 C58.2321,35.1282 58.5721,34.5062 58.8401,33.8452 C59.0161,33.4112 59.2411,32.8702 59.3511,32.4132 C59.5251,31.6822 59.6811,31.0492 59.7761,30.3062 C59.9211,29.1712 59.8181,28.1162 58.9721,26.9192 C58.9001,26.7442 58.6271,26.5172 58.4381,26.3942 C58.4351,26.3442 58.4301,26.2942 58.4241,26.2442 C58.9121,25.3352 59.3441,23.9942 59.5931,22.7862 C60.3801,18.9562 59.8291,12.0592 55.6291,10.4592 C55.1981,5.8732 52.1241,3.5382 47.1981,1.8372 C47.1871,1.8332 47.1751,1.8302 47.1621,1.8252 C45.7461,1.3522 41.2581,0.7192 39.8671,0.6902 C38.2841,0.6592 33.9801,1.1192 32.4681,1.5802 C27.5541,3.0772 23.8151,6.6022 21.8781,11.2922 C20.3271,15.0482 18.6161,22.9502 21.0371,26.6622 C20.9901,26.7822 20.9171,26.8862 20.8111,26.9682 C20.7741,26.9912 20.7361,27.0152 20.6951,27.0412 C20.2931,28.0352 19.9731,29.0632 20.1121,30.1512 C20.2071,30.8932 20.4171,31.6222 20.5931,32.3532 C20.7021,32.8112 20.8001,33.2772 20.9771,33.7112 C21.2441,34.3722 21.5891,35.0022 21.8751,35.6572 C22.2281,36.4662 22.5551,37.2862 22.8911,38.1032 C23.0571,38.5062 23.5481,38.8162 23.9891,38.8332 C24.3261,38.8472 24.6821,38.8512 24.9861,38.9672 C25.1471,39.0282 25.2921,39.3142 25.3131,39.5122 C25.5531,41.8122 26.0301,43.9052 26.8431,45.0332 C27.1221,45.4212 28.1121,46.6912 28.2541,46.8622 C28.5501,48.2662 28.4891,49.7032 28.1981,51.1122 C26.3781,51.0852 25.1241,51.7462 24.3001,53.3262 C23.9231,54.0482 23.0991,55.9182 23.1191,56.0522 C17.9631,57.8242 13.4741,58.3452 10.7081,59.7802 C4.3371,63.0862 1.6651,67.6542 0.5531,78.7422 C10.6751,88.7892 24.6111,95.0002 40.0001,95.0002" id="Fill-8" fill="#9F9FA0" mask="url(#mask-4)"></path>
                </g>
            </g>
        </g>
    </g>
</svg>